<svg width="186" height="53" viewBox="0 0 186 53" fill="none" xmlns="http://www.w3.org/2000/svg">
<g clip-path="url(#clip0_261_2)">
<path d="M47.6408 25.1353L48.0435 24.7314C53.6934 19.0816 53.6939 9.88822 48.0435 4.23781C42.3931 -1.4126 33.1998 -1.4126 27.5493 4.23781L27.1461 4.64053L26.7433 4.23781C21.0929 -1.4126 11.899 -1.4126 6.2486 4.23781C0.598192 9.88822 0.598193 19.0816 6.24916 24.7314L6.65188 25.1353L6.24916 25.538C0.598193 31.1884 0.598192 40.3812 6.2486 46.0327C11.8996 51.6826 21.0935 51.6826 26.7433 46.0327L27.1461 45.6295L27.5493 46.0327C33.1998 51.6826 42.3931 51.6826 48.0435 46.0327C53.6939 40.3812 53.6934 31.1884 48.0435 25.538L47.6408 25.1353ZM29.3334 6.02241C33.9996 1.35619 41.5921 1.35619 46.2578 6.02241C50.924 10.6886 50.924 18.2817 46.2584 22.9474L32.6725 36.5333C31.6324 37.5739 31.3788 38.8083 32.6116 40.0556L33.0758 40.5058C35.6787 43.1087 39.9137 43.1087 42.5166 40.5058C45.1195 37.9029 45.1195 33.6673 42.5171 31.0644L42.1138 30.6611L43.0919 29.6836L43.4952 30.0869C46.6382 33.2288 46.6382 38.3425 43.4952 41.4844C40.3533 44.6263 35.2391 44.6263 32.0972 41.4844C32.0972 41.4844 31.8994 41.3179 31.6319 41.0487C31.3861 40.799 28.9379 38.3123 31.6944 35.5552L45.2798 21.9693C49.407 17.8427 49.407 11.1282 45.2798 7.00101C41.1531 2.87492 34.4392 2.87492 30.3126 7.00157L29.9087 7.40429L28.9301 6.42625L29.3334 6.02241ZM40.732 38.7217C39.1127 40.3399 36.4785 40.3399 34.8592 38.7217L34.4565 38.3184L40.3287 32.4463L40.732 32.8485C42.3507 34.4683 42.3507 37.1019 40.732 38.7217ZM8.03321 6.02241C12.6994 1.35619 20.2925 1.35619 24.9587 6.02241L38.5435 19.6072L37.5649 20.5869L23.9796 7.00101C19.8524 2.87436 13.139 2.87436 9.01236 7.00101C4.88515 11.1277 4.88515 17.8421 9.01236 21.9688L9.41509 22.3721L8.43649 23.3507L8.03321 22.9479C3.36698 18.2817 3.36698 10.6892 8.03321 6.02241ZM34.4571 11.9515L34.8598 11.5483C36.4785 9.92955 39.1127 9.92955 40.7325 11.5483C42.3507 13.167 42.3507 15.8006 40.7325 17.421L40.3292 17.8237L34.4571 11.9515ZM13.0703 29.7691L11.775 31.0638C9.17155 33.6667 9.17211 37.9023 11.775 40.5052C14.3773 43.1081 18.6129 43.1081 21.2158 40.5052L21.6191 40.1019C23.6081 38.114 21.2141 36.1339 20.0624 34.9816L19.3122 34.2253L15.7469 30.66L16.7255 29.6825L21.4677 34.4242L21.842 34.7995C25.3285 38.2844 22.868 40.8096 22.5977 41.08L22.1944 41.4833C19.052 44.6268 13.9389 44.6252 10.7959 41.4833C7.65394 38.3413 7.65394 33.2277 10.7964 30.0847L24.3829 16.4994L25.3609 17.4791L18.5962 24.2427L13.0703 29.7691ZM13.9623 32.4468L19.8345 38.3173L19.4312 38.7212C17.8119 40.3393 15.1783 40.3404 13.5596 38.7212C11.9409 37.1025 11.9409 34.4677 13.5596 32.849L13.9623 32.4468ZM27.1455 19.2631L33.0171 25.1353L27.1455 31.0063L21.2734 25.1353L27.1455 19.2631ZM21.2164 9.76477C18.6135 7.16076 14.3779 7.16188 11.7756 9.76477C9.17267 12.3666 9.17211 16.6027 11.7756 19.2056L12.1783 19.6089L11.1997 20.5869L10.7964 20.1842C7.65394 17.0412 7.6545 11.9281 10.7964 8.78506C13.9394 5.64315 19.0525 5.64259 22.195 8.78506L35.7809 22.371L34.8023 23.3496L21.2164 9.76477ZM19.8345 11.9521L13.9623 17.8237L13.5596 17.421C11.9403 15.8017 11.9403 13.1675 13.5591 11.5483C15.1778 9.92955 17.8119 9.92955 19.4312 11.5494L19.8345 11.9521ZM46.2578 44.2476C41.5921 48.9138 33.9996 48.9138 29.3334 44.2476L28.8257 43.7935C28.7151 43.6823 27.7795 42.7529 27.0902 41.3168C26.4473 42.6741 25.5938 43.6047 25.362 43.8443L24.9587 44.2476C20.2925 48.9138 12.6994 48.9138 8.03321 44.2476C3.36698 39.5814 3.36698 31.9888 8.03321 27.3215L21.6191 13.7367L22.5977 14.7159L9.01236 28.3012C4.88515 32.4284 4.88515 39.1423 9.01236 43.269C13.139 47.3962 19.8529 47.3962 23.9796 43.269L24.4046 42.8434C25.476 41.7313 26.2848 40.0148 26.3445 38.2469C26.3445 38.195 26.3484 38.1431 26.3496 38.0922C26.3618 36.7103 25.9094 35.31 24.7521 34.1516C24.0349 33.4344 22.596 31.9955 22.596 31.9955L22.3888 31.7749L18.5113 27.8979L19.4899 26.9188L24.904 32.3329L25.3581 32.7954C26.1613 33.5992 26.7316 34.399 27.1237 35.1799C27.5175 34.4269 28.0761 33.655 28.8564 32.8741L28.9312 32.7915L42.5177 19.2061C45.12 16.6032 45.12 12.3671 42.5171 9.76422C39.9148 7.16132 35.6792 7.16132 33.0763 9.76422L32.673 10.1681L31.695 9.18946L32.0977 8.78562C35.2396 5.64371 40.3538 5.64371 43.4957 8.78562C46.6388 11.9286 46.6388 17.0417 43.4957 20.1836L29.9082 33.7701L29.4797 34.2002C26.7607 36.9192 27.8286 40.813 29.8171 42.8003L30.312 43.269C34.4386 47.3962 41.1526 47.3962 45.2792 43.269C49.4064 39.1423 49.4064 32.4284 45.2792 28.3012L44.8759 27.8979L45.8545 26.9188L46.2578 27.3226C50.924 31.9888 50.924 39.5808 46.2578 44.2476Z" fill="url(#paint0_linear_261_2)"/>
<path d="M70.6628 27.524H69.5665L63.0027 11.6185V25.7688C63.0027 26.1971 63.3319 26.5988 63.8523 26.5988H64.3358C64.5701 26.5988 64.7394 26.7678 64.7394 27.0021C64.7394 27.2172 64.5701 27.3862 64.3358 27.3862H60.7279C60.4936 27.3862 60.3243 27.2172 60.3243 27.0021C60.3243 26.7678 60.4936 26.5988 60.7279 26.5988H61.2114C61.7318 26.5988 62.061 26.1971 62.061 25.7688V11.4379C62.061 11.0095 61.7318 10.6078 61.2114 10.6078H60.7279C60.4936 10.6078 60.3243 10.4386 60.3243 10.2043C60.3243 9.98915 60.4936 9.82015 60.7279 9.82015H66.2419L71.5758 22.6976L76.622 9.82015H81.9393C82.1736 9.82015 82.3429 9.98915 82.3429 10.2235C82.3429 10.4386 82.1736 10.6078 81.9393 10.6078H81.4558C80.9355 10.6078 80.6065 11.0095 80.6065 11.4379L80.6103 25.7688C80.6103 26.1971 80.9392 26.5988 81.4595 26.5988H81.943C82.1773 26.5988 82.3463 26.7678 82.3463 26.9829C82.3463 27.2172 82.1774 27.3862 81.943 27.3862H75.5328C75.2985 27.3862 75.1295 27.2172 75.1295 26.9829C75.1295 26.7678 75.2985 26.5988 75.5328 26.5988H76.0164C76.5268 26.5988 76.8539 26.2126 76.8653 25.7919L76.8616 11.6443L70.6628 27.524ZM97.1147 22.2555L97.1184 22.2553C97.3336 22.2553 97.5025 22.4246 97.5025 22.6589V27.3863H84.032C83.7977 27.3863 83.6287 27.2173 83.6287 26.983C83.6287 26.7679 83.7977 26.5989 84.032 26.5989H84.5155C85.0049 26.5989 85.3611 26.2436 85.3611 25.8443L85.3573 11.3708C85.3573 10.9675 85.0052 10.6082 84.5121 10.6082H84.0285C83.7942 10.6082 83.625 10.4389 83.625 10.2238C83.625 9.98948 83.7942 9.82048 84.0285 9.82048H97.4658V14.5479C97.4658 14.7822 97.2968 14.9515 97.0625 14.9515C96.8473 14.9515 96.6784 14.7822 96.6784 14.5479V14.103C96.6784 12.2637 95.5855 10.6084 93.3997 10.6084H89.9517C89.4623 10.6084 89.1062 10.9579 89.1062 11.363V17.833H90.0493C92.0568 17.833 92.7663 17.1178 92.7663 15.4531V15.3337C92.7663 15.1186 92.9548 14.9301 93.1699 14.9301C93.3851 14.9301 93.5735 15.1186 93.5735 15.3337V21.1585C93.5735 21.3736 93.3851 21.5621 93.1699 21.5621C92.9548 21.5621 92.7663 21.3929 92.7663 21.1005V20.9736C92.7663 19.4129 92.0954 18.6591 90.0493 18.6591H89.1062V25.8362C89.1062 26.2432 89.4583 26.5985 89.9515 26.5985H93.4325C95.6183 26.5985 96.7111 24.9432 96.7111 23.1039V22.659C96.7111 22.4247 96.8804 22.2555 97.1147 22.2555ZM107.527 9.82002C113.77 9.82002 117.926 12.0322 117.926 18.4832C117.926 23.5478 114.25 27.3862 107.526 27.3862H100.608C100.374 27.3862 100.205 27.2172 100.205 26.9829C100.205 26.7678 100.374 26.5988 100.608 26.5988H101.091C101.581 26.5988 101.937 26.2435 101.937 25.8442L101.933 11.3707C101.933 10.9674 101.581 10.6081 101.088 10.6081H100.605C100.37 10.6081 100.201 10.4389 100.201 10.2237C100.201 9.98942 100.37 9.82042 100.605 9.82042L107.527 9.82002ZM107.526 26.5983C111.059 26.5983 113.819 24.0007 113.819 18.4829C113.819 12.9118 111.352 10.6074 107.526 10.6074H106.527C106.038 10.6074 105.682 10.9628 105.682 11.3621L105.686 25.8355C105.686 26.2388 106.038 26.5982 106.531 26.5982L107.526 26.5983ZM126.5 26.5986C126.734 26.5986 126.903 26.7673 126.903 26.9824C126.903 27.2167 126.734 27.3857 126.5 27.3857H120.093C119.859 27.3857 119.69 27.2167 119.69 26.9824C119.69 26.7673 119.859 26.5983 120.093 26.5983H120.577C121.066 26.5983 121.422 26.2488 121.422 25.8436L121.419 11.3702C121.419 10.9631 121.067 10.6078 120.573 10.6078H120.09C119.856 10.6078 119.686 10.4386 119.686 10.2234C119.686 9.98913 119.856 9.82013 120.09 9.82013H126.496C126.731 9.82013 126.9 9.98912 126.9 10.2234C126.9 10.4386 126.731 10.6078 126.496 10.6078H126.013C125.523 10.6078 125.167 10.9631 125.167 11.3624L125.171 25.8359C125.171 26.2392 125.523 26.5985 126.017 26.5985L126.5 26.5986ZM141.919 12.5056C141.919 11.4514 140.348 10.431 138.115 10.431C135.286 10.431 132.751 12.399 132.751 18.6163C132.751 23.4474 134.714 26.5524 138.231 26.5524C140.488 26.5524 142.29 25.3319 143.148 23.8234C143.407 23.3959 143.556 23.3305 143.726 23.3305C143.948 23.3305 144.117 23.507 144.11 23.7296C144.051 24.1257 143.693 24.6727 143.125 25.2647C142.085 26.4432 140.26 27.6547 137.492 27.6547C131.836 27.6547 128.644 23.7418 128.644 18.6163C128.644 13.2676 132.221 9.55133 137.559 9.55133C141.589 9.55133 144.144 11.6718 144.144 14.0213C144.144 15.5729 143.229 16.2457 142.361 16.2457C141.557 16.2457 140.781 15.6915 140.781 14.7236C140.781 13.6435 141.919 13.3098 141.919 12.5056ZM152.836 26.5986C153.07 26.5986 153.239 26.7673 153.239 26.9824C153.239 27.2167 153.07 27.3857 152.836 27.3857H146.429C146.195 27.3857 146.026 27.2167 146.026 26.9824C146.026 26.7673 146.195 26.5983 146.429 26.5983H146.913C147.402 26.5983 147.758 26.2488 147.758 25.8436L147.755 11.3702C147.755 10.9631 147.403 10.6078 146.909 10.6078H146.426C146.192 10.6078 146.022 10.4386 146.022 10.2234C146.022 9.98913 146.192 9.82013 146.426 9.82013H152.832C153.067 9.82013 153.236 9.98912 153.236 10.2234C153.236 10.4386 153.067 10.6078 152.832 10.6078H152.349C151.859 10.6078 151.503 10.9631 151.503 11.3624L151.507 25.8359C151.507 26.2392 151.859 26.5985 152.353 26.5985L152.836 26.5986ZM170.45 9.82002C170.684 9.82002 170.853 9.98907 170.853 10.2042C170.853 10.4385 170.684 10.6078 170.45 10.6078H169.966C169.446 10.6078 169.117 11.0095 169.117 11.4378V27.386H167.29L157.178 13.6756V25.7687C157.178 26.197 157.507 26.5987 158.027 26.5987H158.511C158.745 26.5987 158.914 26.7677 158.914 27.002C158.914 27.2172 158.745 27.3862 158.511 27.3862H154.903C154.669 27.3862 154.499 27.2172 154.499 27.002C154.499 26.7677 154.669 26.5987 154.903 26.5987H155.386C155.907 26.5987 156.236 26.197 156.236 25.7687V11.4378C156.236 11.0095 155.907 10.6078 155.386 10.6078H154.903C154.669 10.6078 154.499 10.4385 154.499 10.2042C154.499 9.98907 154.669 9.82008 154.903 9.82008H158.678L168.175 22.6509V11.4381C168.175 11.0097 167.846 10.608 167.325 10.608H166.842C166.608 10.608 166.439 10.4388 166.439 10.2045C166.439 9.98933 166.608 9.82034 166.842 9.82034L170.45 9.82002ZM185.612 22.2555L185.616 22.2553C185.831 22.2553 186 22.4246 186 22.6589V27.3863H172.529C172.295 27.3863 172.126 27.2173 172.126 26.983C172.126 26.7679 172.295 26.5989 172.529 26.5989H173.013C173.502 26.5989 173.859 26.2436 173.859 25.8443L173.855 11.3708C173.855 10.9675 173.503 10.6082 173.01 10.6082H172.526C172.292 10.6082 172.122 10.4389 172.122 10.2238C172.122 9.98948 172.292 9.82048 172.526 9.82048H185.963V14.5479C185.963 14.7822 185.794 14.9515 185.56 14.9515C185.345 14.9515 185.176 14.7822 185.176 14.5479V14.103C185.176 12.2637 184.083 10.6084 181.897 10.6084H178.449C177.96 10.6084 177.604 10.9579 177.604 11.363V17.833H178.547C180.554 17.833 181.264 17.1178 181.264 15.4531V15.3337C181.264 15.1186 181.452 14.9301 181.667 14.9301C181.883 14.9301 182.071 15.1186 182.071 15.3337V21.1585C182.071 21.3736 181.883 21.5621 181.667 21.5621C181.452 21.5621 181.264 21.3929 181.264 21.1005V20.9736C181.264 19.4129 180.593 18.6591 178.547 18.6591H177.604V25.8362C177.604 26.2432 177.956 26.5985 178.449 26.5985H181.93C184.116 26.5985 185.209 24.9432 185.209 23.1039V22.659C185.209 22.4247 185.378 22.2555 185.612 22.2555Z" fill="url(#paint1_linear_261_2)"/>
<path d="M62.6511 33.1784C65.5327 33.1784 67.0242 35.01 67.0242 37.3546C67.0242 39.6993 65.5327 41.5309 62.6511 41.5309H60.5033C60.3959 41.5309 60.3243 41.4593 60.3243 41.3519V33.3574C60.3243 33.25 60.3959 33.1784 60.5033 33.1784H62.6511ZM62.6511 40.3317C64.6676 40.3317 65.6699 39.216 65.6699 37.3546C65.6699 35.4932 64.6676 34.3776 62.6511 34.3776H61.6607V40.3317H62.6511ZM96.6457 41.328C96.6874 41.4473 96.6337 41.5309 96.5025 41.5309H95.4942C95.3987 41.5309 95.3272 41.4951 95.2914 41.3877L94.7604 39.9021H91.1569L90.6259 41.3877C90.5841 41.4951 90.5185 41.5309 90.4231 41.5309H89.4148C89.2835 41.5309 89.2299 41.4473 89.2716 41.328L92.2725 33.3216C92.3083 33.2261 92.3859 33.1784 92.4813 33.1784H93.418C93.5135 33.1784 93.603 33.2261 93.6388 33.3216L96.6457 41.328ZM91.5745 38.7447H94.3428L92.9586 34.8847L91.5745 38.7447ZM125.635 33.1784C125.742 33.1784 125.814 33.25 125.814 33.3574V41.3519C125.814 41.4533 125.748 41.5249 125.653 41.5309H124.465C124.37 41.5309 124.298 41.4951 124.251 41.4116L120.677 35.2188V41.3519C120.677 41.4593 120.605 41.5309 120.498 41.5309H119.519C119.412 41.5309 119.341 41.4593 119.341 41.3519V33.3574C119.341 33.256 119.406 33.1844 119.502 33.1784H120.689C120.784 33.1784 120.856 33.2142 120.904 33.2977L124.477 39.4905V33.3574C124.477 33.25 124.549 33.1784 124.656 33.1784H125.635ZM154.701 34.3776H152.565V40.3317H154.701C154.809 40.3317 154.88 40.4033 154.88 40.5107V41.3519C154.88 41.4593 154.809 41.5309 154.701 41.5309H149.087C148.98 41.5309 148.908 41.4593 148.908 41.3519V40.5107C148.908 40.4033 148.98 40.3317 149.087 40.3317H151.223V34.3776H149.087C148.98 34.3776 148.908 34.306 148.908 34.1986V33.3574C148.908 33.25 148.98 33.1784 149.087 33.1784H154.701C154.809 33.1784 154.88 33.25 154.88 33.3574V34.1986C154.88 34.306 154.809 34.3776 154.701 34.3776ZM183.857 33.1784C183.965 33.1784 184.036 33.25 184.036 33.3574V34.1986C184.036 34.306 183.965 34.3776 183.857 34.3776H181.453V41.3519C181.453 41.4593 181.381 41.5309 181.274 41.5309H180.29C180.182 41.5309 180.111 41.4593 180.111 41.3519V34.3776H177.706C177.599 34.3776 177.527 34.306 177.527 34.1986V33.3574C177.527 33.25 177.599 33.1784 177.706 33.1784H183.857Z" fill="url(#paint2_linear_261_2)"/>
</g>
<defs>
<linearGradient id="paint0_linear_261_2" x1="2.01086" y1="0" x2="52.2811" y2="0" gradientUnits="userSpaceOnUse">
<stop stop-color="#2D3371"/>
<stop offset="1" stop-color="#CE8D3D"/>
</linearGradient>
<linearGradient id="paint1_linear_261_2" x1="60.3243" y1="9.55133" x2="186" y2="9.55133" gradientUnits="userSpaceOnUse">
<stop stop-color="#CE8D3D"/>
<stop offset="1" stop-color="#2D3473"/>
</linearGradient>
<linearGradient id="paint2_linear_261_2" x1="60.3243" y1="33.1784" x2="184.036" y2="33.1784" gradientUnits="userSpaceOnUse">
<stop stop-color="#CE8D3D"/>
<stop offset="0.5" stop-color="#2C326F"/>
<stop offset="1" stop-color="#CE8D3D"/>
</linearGradient>
<clipPath id="clip0_261_2">
<rect width="186" height="52.7836" fill="white"/>
</clipPath>
</defs>
</svg>
